<svg width="48" height="48" viewBox="0 0 48 48" fill="none" xmlns="http://www.w3.org/2000/svg">
<path d="M21.4 1.00001C17.4 2.46667 15.6667 6.33334 15.6667 13.4C15.6667 19.2667 15.8 19.5333 19.6667 19.5333C23.5333 19.5333 23.6667 19.4 23.6667 13.2667C23.6667 8.33334 24.0667 7.40001 25.2667 8.60001C27.4 10.7333 33 10.6 33 8.46667C33 5.80001 29.4 1.26667 26.6 0.600006C25.2667 0.200006 23 0.466673 21.4 1.00001Z" fill="#FF5733"/>
<path d="M2.8 18.8C1.6 20.4 0.666664 22.6667 0.666664 23.8667C0.666664 25.0667 1.6 27.3333 2.8 28.9333C4.53333 31.4667 6 31.8667 12.8 31.8667C20.2667 31.8667 20.6667 31.7333 20.6667 28.5333C20.6667 25.4667 20.1333 25.2 14.6667 25.2C11.3333 25.2 8.66666 24.5333 8.66666 23.8667C8.66666 23.0667 9.33333 22.5333 10 22.5333C10.8 22.5333 11.3333 21.0667 11.3333 19.2C11.3333 16.5333 10.6667 15.8667 8.13333 15.8667C6.26666 15.8667 3.86666 17.2 2.8 18.8Z" fill="#008080"/>
<path d="M28 19.2C28 22.2667 28.4 22.5333 33.8667 22.5333H39.8667L39.0667 27.3333C38.4 31.7333 38.5333 32.1333 41.4667 31.6C43.2 31.4667 45.4667 29.6 46.6667 27.4667C48.4 24.2667 48.4 23.4667 46.6667 20.1333C44.8 16.9333 43.7333 16.5333 36.2667 16.1333C28.1333 15.7333 28 15.8667 28 19.2Z" fill="#008080"/>
<path d="M24.8667 34.4667C24.8667 38.0667 24.4667 40.0667 24.0667 39.1333C23.1333 36.8667 15.6667 37 15.6667 39.4C15.6667 43 20.3333 47.1333 24.3333 47.1333C29.9333 47.1333 33 42.7333 33 34.7333C33 28.3333 32.8667 28.2 29 28.2C25.1333 28.2 25 28.4667 24.8667 34.4667Z" fill="#FF5733"/>
</svg>
